<svg xmlns="http://www.w3.org/2000/svg" width="18.484" height="22.12" viewBox="0 0 18.484 22.12"><g id="noun_Bell_1887648" transform="translate(0.001)"><g id="Camada_2" data-name="Camada 2" transform="translate(-0.001)"><g id="Your_Icon" data-name="Your Icon"><path id="Path_1548" data-name="Path 1548" d="M17.09,16.175v-5.63A7.836,7.836,0,0,0,11.707,3.1s0-.732,0-.785A2.474,2.474,0,0,0,9.244,0h0A2.47,2.47,0,0,0,6.775,2.311c0,.053,0,.785,0,.785a7.836,7.836,0,0,0-5.383,7.449v5.63a1.5,1.5,0,0,0,.114,3H6.288A2.957,2.957,0,0,0,9.239,22.12h0a2.957,2.957,0,0,0,2.951-2.941h4.782a1.5,1.5,0,0,0,.114-3ZM9.244,21.151h0a1.987,1.987,0,0,1-1.984-1.972h3.973a1.987,1.987,0,0,1-1.984,1.972Zm7.733-2.941H1.506a.535.535,0,1,1,0-1.071h.855V10.545A6.873,6.873,0,0,1,7.6,3.866l.141-.034V2.471a1.5,1.5,0,0,1,1.5-1.5h0a1.5,1.5,0,0,1,1.5,1.5V3.832l.141.034a6.873,6.873,0,0,1,5.237,6.679v6.594h.855a.535.535,0,1,1,0,1.071Z" transform="translate(0.001)" fill="#fff"/></g></g></g></svg>
