<svg width="24" height="24" xmlns="http://www.w3.org/2000/svg">

 <g>
  <title>background</title>
  <rect fill="none" id="canvas_background" height="26" width="26" y="-1" x="-1"/>
 </g>
 <g>
  <title>Layer 1</title>
  <path fill="#b8b8b8" stroke="null" id="svg_1" d="m18.746332,7.902703l-3.727328,0l0,-2.444581c0,-0.918059 0.608463,-1.132094 1.037021,-1.132094c0.427582,0 2.630338,0 2.630338,0l0,-4.035948l-3.622505,-0.014139c-4.021321,0 -4.936454,3.010141 -4.936454,4.936455l0,2.690307l-2.325619,0l0,4.158811l2.325619,0c0,5.337222 0,11.768021 0,11.768021l4.8916,0c0,0 0,-6.494181 0,-11.768021l3.300721,0l0.426607,-4.158811z"/>
 </g>
</svg>