<svg width="24" height="24" xmlns="http://www.w3.org/2000/svg">

 <g>
  <title>background</title>
  <rect fill="none" id="canvas_background" height="26" width="26" y="-1" x="-1"/>
 </g>
 <g>
  <title>Layer 1</title>
  <path id="svg_2" d="m30.071,27.101l0,-0.077c-0.016,0.026 -0.033,0.052 -0.05,0.077l0.05,0z"/>
  <path fill="#b8b8b8" stroke="null" id="svg_3" d="m21.95897,0.215344l-19.75055,0c-0.94533,0 -1.712,0.74838 -1.712,1.67073l0,19.98172c0,0.92188 0.76667,1.67026 1.712,1.67026l19.75055,0c0.94673,0 1.7134,-0.74885 1.7134,-1.67026l0,-19.98172c0,-0.92282 -0.76714,-1.67073 -1.7134,-1.67073zm-14.43779,19.52406l-3.50042,0l0,-10.53128l3.50042,0l0,10.53128zm-1.74997,-11.9699l-0.02345,0c-1.17415,0 -1.93379,-0.80887 -1.93379,-1.81938c0,-1.03301 0.78308,-1.81937 1.98021,-1.81937c1.1976,0 1.93426,0.78636 1.95771,1.81937c0,1.01051 -0.76058,1.81938 -1.98068,1.81938zm14.3726,11.9699l-3.50042,0l0,-5.63538c0,-1.41517 -0.50643,-2.38113 -1.77296,-2.38113c-0.96689,0 -1.54272,0.65132 -1.7964,1.2806c-0.09237,0.22461 -0.11488,0.53878 -0.11488,0.85389l0,5.88155l-3.50042,0c0,0 0.04595,-9.54422 0,-10.53128l3.50042,0l0,1.49067c0.46516,-0.71743 1.29701,-1.73919 3.1553,-1.73919c2.30283,0 4.02983,1.50567 4.02983,4.74069l0,6.03958l-0.00047,0z"/>
 </g>
</svg>