<svg xmlns="http://www.w3.org/2000/svg" width="20.744" height="18.395" viewBox="0 0 20.744 18.395">
  <g id="Group_3708" data-name="Group 3708" transform="translate(-382.809 -667.522)">
    <g id="Group_1131" data-name="Group 1131" transform="translate(382.809 667.522)">
      <path id="Path_1027" data-name="Path 1027" d="M402.664,669.3H383.7a.889.889,0,0,1,0-1.778h18.967a.889.889,0,0,1,0,1.778Z" transform="translate(-382.809 -667.522)" fill="#3e4095"/>
    </g>
    <g id="Group_1132" data-name="Group 1132" transform="translate(388.127 675.83)">
      <path id="Path_1028" data-name="Path 1028" d="M403.33,678.648H389.681a.889.889,0,0,1,0-1.778H403.33a.889.889,0,0,1,0,1.778Z" transform="translate(-388.792 -676.87)" fill="#3e4095"/>
    </g>
    <g id="Group_1133" data-name="Group 1133" transform="translate(382.809 684.14)">
      <path id="Path_1029" data-name="Path 1029" d="M402.664,688H383.7a.889.889,0,0,1,0-1.778h18.967a.889.889,0,0,1,0,1.778Z" transform="translate(-382.809 -686.219)" fill="#3e4095"/>
    </g>
  </g>
</svg>
