<svg id="Group_54" data-name="Group 54" xmlns="http://www.w3.org/2000/svg" width="19.411" height="19.431" viewBox="0 0 19.411 19.431">
  <path id="Path_25" data-name="Path 25" d="M14.691,19.43a9.26,9.26,0,0,1-3.315-.747,18.374,18.374,0,0,1-4.6-2.8A20.809,20.809,0,0,1,2.723,11.7,15.8,15.8,0,0,1,.144,5.888,4.484,4.484,0,0,1,.793,2.139,6.38,6.38,0,0,1,2.69.431a2.393,2.393,0,0,1,1-.411,1.247,1.247,0,0,1,.41,0,.543.543,0,0,1,.314.2c.835,1.348,1.659,2.7,2.485,4.058a.687.687,0,0,1-.059.895c-.329.346-.685.667-1.038.989-.318.29-.652.564-.971.853a.8.8,0,0,0-.227.9A6.249,6.249,0,0,0,5.8,10a18.58,18.58,0,0,0,2.694,2.61,23.7,23.7,0,0,0,2.753,2.045,4.532,4.532,0,0,0,.476.248.509.509,0,0,0,.587-.083,6.532,6.532,0,0,0,.6-.615c.331-.394.642-.806.969-1.2a2.144,2.144,0,0,1,.324-.31.737.737,0,0,1,.974-.074q1.3.751,2.589,1.512c.47.276.933.562,1.405.833a.456.456,0,0,1,.244.441,2.876,2.876,0,0,1-.417,1.376,4.982,4.982,0,0,1-3.6,2.567C15.125,19.4,14.849,19.412,14.691,19.43Z" transform="translate(0 0)" fill="#f5f5f5"/>
</svg>
