<svg width="23.999999999999996" height="23.999999999999996" xmlns="http://www.w3.org/2000/svg">

 <g>
  <title>background</title>
  <rect fill="none" id="canvas_background" height="26" width="26" y="-1" x="-1"/>
 </g>
 <g>
  <title>Layer 1</title>
  <path fill="#b8b8b8" stroke="null" id="svg_1" d="m13.21088,0.14398c-6.44015,0 -9.68771,4.61703 -9.68771,8.46803c0,2.33127 0.88264,4.40515 2.77543,5.17734c0.31049,0.12799 0.58875,0.00474 0.67881,-0.33893c0.06257,-0.23701 0.21094,-0.83713 0.27683,-1.0879c0.09054,-0.33987 0.05546,-0.45838 -0.1953,-0.7556c-0.5456,-0.64325 -0.89496,-1.47659 -0.89496,-2.65787c0,-3.42533 2.56307,-6.49182 6.67384,-6.49182c3.64006,0 5.63999,2.22414 5.63999,5.19393c0,3.90884 -1.72973,7.2076 -4.29707,7.2076c-1.41829,0 -2.47917,-1.17227 -2.13976,-2.61095c0.40719,-1.7174 1.19645,-3.56991 1.19645,-4.81044c0,-1.10922 -0.59586,-2.03453 -1.82786,-2.03453c-1.44957,0 -2.61426,1.49983 -2.61426,3.50829c0,1.2794 0.43231,2.14497 0.43231,2.14497s-1.48323,6.28562 -1.74347,7.38631c-0.51764,2.19238 -0.07774,4.87917 -0.0403,5.15031c0.02181,0.16117 0.22849,0.20004 0.32234,0.07869c0.13321,-0.17491 1.86056,-2.30614 2.44694,-4.43643c0.16638,-0.60249 0.95327,-3.72538 0.95327,-3.72538c0.47118,0.89875 1.84776,1.68849 3.31156,1.68849c4.35679,0 7.3133,-3.97189 7.3133,-9.28858c0.00048,-4.02119 -3.40494,-7.76553 -8.58038,-7.76553z"/>
 </g>
</svg>