<svg id="Group_2711" data-name="Group 2711" xmlns="http://www.w3.org/2000/svg" width="32" height="32" viewBox="0 0 32 32">
  <g id="Ellipse_7" data-name="Ellipse 7" fill="#fff" stroke="#707070" stroke-width="0.5">
    <circle cx="16" cy="16" r="16" stroke="none"/>
    <circle cx="16" cy="16" r="15.75" fill="none"/>
  </g>
  <g id="Group_9" data-name="Group 9" transform="translate(9.751 8.855)">
    <path id="Path_6" data-name="Path 6" d="M1496.137,84.635a4.617,4.617,0,0,1-2.275-1.083c-.445,2.333-.988,4.57-2.6,5.739-.5-3.527.729-6.176,1.3-8.987-.972-1.635.117-4.926,2.166-4.115,2.521,1-2.183,6.079.975,6.714,3.3.663,4.643-5.721,2.6-7.8-2.954-3-8.6-.069-7.9,4.223.169,1.049,1.253,1.367.433,2.815-1.891-.419-2.455-1.91-2.382-3.9a6.362,6.362,0,0,1,5.739-5.848c3.56-.4,6.9,1.308,7.363,4.657.519,3.78-1.607,7.874-5.414,7.58Zm0,0" transform="translate(-1488.442 -72.341)"/>
  </g>
</svg>
