<svg id="Group_2711" data-name="Group 2711" xmlns="http://www.w3.org/2000/svg" width="32" height="32" viewBox="0 0 32 32">
  <g id="Path_1604" data-name="Path 1604" fill="#124e91">
    <path d="M 16 31.75 C 11.79302024841309 31.75 7.837850093841553 30.11170959472656 4.863070011138916 27.13693046569824 C 1.888290047645569 24.16214942932129 0.25 20.20697975158691 0.25 16 C 0.25 11.79302024841309 1.888290047645569 7.837850093841553 4.863070011138916 4.863070011138916 C 7.837850093841553 1.888290047645569 11.79302024841309 0.25 16 0.25 C 20.20697975158691 0.25 24.16214942932129 1.888290047645569 27.13693046569824 4.863070011138916 C 30.11170959472656 7.837850093841553 31.75 11.79302024841309 31.75 16 C 31.75 20.20697975158691 30.11170959472656 24.16214942932129 27.13693046569824 27.13693046569824 C 24.16214942932129 30.11170959472656 20.20697975158691 31.75 16 31.75 Z" stroke="none"/>
    <path d="M 16 0.5 C 11.85980033874512 0.5 7.967409133911133 2.112279891967773 5.039840698242188 5.039840698242188 C 2.112279891967773 7.967409133911133 0.5 11.85980033874512 0.5 16 C 0.5 20.14019966125488 2.112279891967773 24.03258895874023 5.039840698242188 26.96015930175781 C 7.967409133911133 29.88772010803223 11.85980033874512 31.5 16 31.5 C 20.14019966125488 31.5 24.03258895874023 29.88772010803223 26.96015930175781 26.96015930175781 C 29.88772010803223 24.03258895874023 31.5 20.14019966125488 31.5 16 C 31.5 11.85980033874512 29.88772010803223 7.967409133911133 26.96015930175781 5.039840698242188 C 24.03258895874023 2.112279891967773 20.14019966125488 0.5 16 0.5 M 16 0 C 24.8365592956543 0 32 7.163440704345703 32 16 C 32 24.8365592956543 24.8365592956543 32 16 32 C 7.163440704345703 32 0 24.8365592956543 0 16 C 0 7.163440704345703 7.163440704345703 0 16 0 Z" stroke="none" fill="#707070"/>
  </g>
  <g id="Group_9" data-name="Group 9" transform="translate(9.751 8.855)">
    <path id="Path_6" data-name="Path 6" d="M1496.137,84.635a4.617,4.617,0,0,1-2.275-1.083c-.445,2.333-.988,4.57-2.6,5.739-.5-3.527.729-6.176,1.3-8.987-.972-1.635.117-4.926,2.166-4.115,2.521,1-2.183,6.079.975,6.714,3.3.663,4.643-5.721,2.6-7.8-2.954-3-8.6-.069-7.9,4.223.169,1.049,1.253,1.367.433,2.815-1.891-.419-2.455-1.91-2.382-3.9a6.362,6.362,0,0,1,5.739-5.848c3.56-.4,6.9,1.308,7.363,4.657.519,3.78-1.607,7.874-5.414,7.58Zm0,0" transform="translate(-1488.442 -72.341)" fill="#fff"/>
  </g>
</svg>
