<svg width="24" height="24" xmlns="http://www.w3.org/2000/svg">

 <g>
  <title>background</title>
  <rect fill="none" id="canvas_background" height="26" width="26" y="-1" x="-1"/>
 </g>
 <g>
  <title>Layer 1</title>
  <path stroke="null" fill="#b9b9b9" id="svg_1" d="m0.503557,12.867539c2.886801,0 5.600581,1.127671 7.639996,3.178746c2.043146,2.051075 3.16802,4.783043 3.16802,7.691297l4.448659,0c0,-8.447275 -6.844377,-15.319168 -15.256675,-15.319168l0,4.449125zm0.006995,-7.886704c10.288485,0 18.659276,8.416495 18.659276,18.762343l4.448659,0c0,-12.799396 -10.366834,-23.211001 -23.107935,-23.211001l0,4.448659zm6.151825,15.654484c0,1.701301 -1.379975,3.081276 -3.081276,3.081276s-3.081276,-1.379509 -3.081276,-3.081276c0,-1.702233 1.379509,-3.081276 3.080809,-3.081276s3.081742,1.379042 3.081742,3.081276z"/>
 </g>
</svg>