<svg width="24.000000000000004" height="24.000000000000004" xmlns="http://www.w3.org/2000/svg">

 <g>
  <title>background</title>
  <rect fill="none" id="canvas_background" height="26" width="26" y="-1" x="-1"/>
 </g>
 <g>
  <title>Layer 1</title>
  <path fill="#b8b8b8" stroke="null" id="svg_1" d="m0.252307,7.777571l0.949552,1.245283c0,0 1.958628,-1.543376 2.611504,-0.771924c0.652876,0.771924 3.144387,10.089342 3.976307,11.808929c0.7261,1.507945 2.729135,3.502004 4.925387,2.077204c2.194835,-1.423855 9.494573,-7.655466 10.800798,-15.013784c1.305752,-7.357373 -8.784063,-5.816832 -9.851718,0.593352c2.670083,-1.603845 4.0963,0.651931 2.729607,3.204855c-1.364804,2.550562 -2.611031,4.214404 -3.263435,4.214404c-0.651459,0 -1.153162,-1.706359 -1.899576,-4.690125c-0.772397,-3.084862 -0.7672,-8.640922 -3.975835,-8.011194c-3.026283,0.593824 -7.00259,5.343001 -7.00259,5.343001z"/>
 </g>
</svg>