<svg width="24" height="24" xmlns="http://www.w3.org/2000/svg">
 <title/>
 <desc/>

 <g>
  <title>background</title>
  <rect fill="none" id="canvas_background" height="26" width="26" y="-1" x="-1"/>
 </g>
 <g>
  <title>Layer 1</title>
  <path fill="#777777" stroke="null" id="Shape" d="m21.214954,3.306542c-0.688785,-0.229595 -4.936293,-0.45919 -9.183801,-0.45919c-4.247508,0 -8.495016,0.229595 -9.183801,0.45919c-1.83676,0.573988 -2.29595,4.5919 -2.29595,8.724611c0,4.13271 0.45919,8.150623 2.29595,8.724611c0.688785,0.229595 4.936293,0.45919 9.183801,0.45919c4.247508,0 8.495016,-0.229595 9.183801,-0.45919c1.83676,-0.573988 2.29595,-4.5919 2.29595,-8.724611c0,-4.13271 -0.45919,-8.150623 -2.29595,-8.724611l0,0zm-11.479751,13.890499l0,-10.331776l6.887851,5.165888l-6.887851,5.165888l0,0z"/>
 </g>
</svg>