<svg width="24" height="24" xmlns="http://www.w3.org/2000/svg">

 <g>
  <title>background</title>
  <rect fill="none" id="canvas_background" height="26" width="26" y="-1" x="-1"/>
 </g>
 <g>
  <title>Layer 1</title>
  <path stroke="null" id="svg_1" fill-rule="evenodd" clip-rule="evenodd" fill="#CF3427" d="m15.770648,14.905065c-0.110028,0 -0.189185,0.030871 -0.237471,0.096572c-0.04789,0.061743 -0.071241,0.167813 -0.071241,0.315045l0,0.354624l0.610697,0l0,-0.354624c0,-0.147232 -0.024539,-0.253303 -0.07322,-0.315045c-0.045911,-0.0657 -0.123881,-0.096572 -0.228764,-0.096572zm-2.381837,-0.012269c0.092614,0 0.165043,0.03008 0.215307,0.091031c0.048682,0.060951 0.07322,0.151586 0.07322,0.269926l0,1.81428c0,0.113195 -0.020977,0.192748 -0.060555,0.241825c-0.039579,0.050265 -0.101321,0.074803 -0.186019,0.074803c-0.058576,0 -0.11359,-0.013061 -0.166626,-0.037995c-0.053431,-0.024539 -0.108445,-0.067679 -0.164251,-0.123881l0,-2.189089c0.047098,-0.048286 0.094593,-0.084302 0.142483,-0.107258c0.04789,-0.023351 0.096572,-0.033642 0.146441,-0.033642zm2.07352,1.325485l0,0.661753c0,0.185228 0.02256,0.313462 0.067284,0.385495c0.046703,0.071637 0.123881,0.106466 0.234305,0.106466c0.114382,0 0.194331,-0.03008 0.239846,-0.090635c0.04512,-0.060555 0.069262,-0.193539 0.069262,-0.400931l0,-0.160293l0.710435,0l0,0.180478c0,0.360561 -0.085885,0.631674 -0.260031,0.814922c-0.172167,0.181666 -0.43101,0.271905 -0.774948,0.271905c-0.309108,0 -0.553308,-0.09578 -0.731016,-0.289319c-0.177312,-0.192352 -0.267551,-0.457924 -0.267551,-0.797112l0,-1.577601c0,-0.303963 0.098551,-0.553308 0.293673,-0.744868c0.195122,-0.191956 0.446446,-0.287736 0.756346,-0.287736c0.316233,0 0.559245,0.089052 0.729433,0.266759c0.169792,0.177312 0.254094,0.432593 0.254094,0.765845l0,0.896058l-1.321132,0l0,-0.001187zm-1.236829,1.518629c-0.107258,0.132984 -0.26478,0.198288 -0.469797,0.198288c-0.135754,0 -0.255677,-0.024539 -0.360956,-0.075991c-0.105675,-0.051056 -0.205413,-0.129422 -0.295256,-0.237867l0,0.26953l-0.698165,0l0,-4.76209l0.698165,0l0,1.533669c0.093801,-0.106862 0.191956,-0.189185 0.296047,-0.2442c0.105675,-0.056202 0.211349,-0.083511 0.318607,-0.083511c0.219265,0 0.385891,0.074803 0.500669,0.223619c0.116361,0.150003 0.173354,0.369268 0.173354,0.657004l0,1.949639c0,0.248553 -0.054223,0.438926 -0.162668,0.57191zm-3.033695,0.153961l0,-0.386287c-0.12863,0.142879 -0.260427,0.25172 -0.399347,0.325336c-0.138129,0.075595 -0.271509,0.111611 -0.401326,0.111611c-0.160293,0 -0.279029,-0.051056 -0.361352,-0.156731c-0.079553,-0.105279 -0.120715,-0.260427 -0.120715,-0.470589l0,-2.937519l0.69025,0l0,2.694903c0,0.083511 0.014644,0.143274 0.042349,0.180874c0.030475,0.0376 0.077574,0.055806 0.141691,0.055806c0.050661,0 0.115569,-0.024539 0.193143,-0.074408c0.07797,-0.049473 0.14842,-0.112007 0.214516,-0.187998l0,-2.669177l0.69025,0l0,3.513783l-0.689458,0l0,0.000396zm-2.391336,-4.070257l0,4.070257l-0.778906,0l0,-4.070257l-0.805028,0l0,-0.691833l2.388961,0l0,0.691833l-0.805028,0zm3.197155,-2.225106c0,-0.000396 4.781088,0.007124 5.348644,0.573889c0.569535,0.567952 0.575868,3.369717 0.575868,3.385944c0,0 -0.004749,2.816805 -0.575868,3.38634c-0.567556,0.565973 -5.348644,0.578243 -5.348644,0.578243s-4.780692,-0.012269 -5.349436,-0.578638c-0.569139,-0.567952 -0.570327,-3.364968 -0.570327,-3.38634c0,-0.016227 0.001583,-2.817992 0.570327,-3.385944c0.569139,-0.566369 5.349436,-0.573889 5.349436,-0.573493zm3.770252,-1.473509l-0.778114,0l0,-0.427448c-0.141691,0.157127 -0.291298,0.278237 -0.447238,0.359769c-0.155148,0.082323 -0.305151,0.123485 -0.451195,0.123485c-0.18127,0 -0.315441,-0.057785 -0.406472,-0.172958c-0.090635,-0.115174 -0.136546,-0.287736 -0.136546,-0.518875l0,-3.234359l0.776531,0l0,2.967203c0,0.091426 0.01781,0.157918 0.050265,0.198684c0.031663,0.041162 0.08549,0.061743 0.157918,0.061743c0.056597,0 0.129422,-0.027309 0.21689,-0.081532c0.087073,-0.054223 0.167417,-0.123485 0.23945,-0.208579l0,-2.937519l0.778114,0l0,3.870386l0.000396,0zm-4.224218,-0.659774c0.055014,0.05818 0.134171,0.086677 0.237471,0.086677c0.105279,0 0.188394,-0.029684 0.250928,-0.08826c0.062138,-0.060159 0.09301,-0.141691 0.09301,-0.244595l0,-2.108349c0,-0.084698 -0.031663,-0.153169 -0.095384,-0.205413c-0.063326,-0.051848 -0.146441,-0.077574 -0.248553,-0.077574c-0.095384,0 -0.172167,0.025726 -0.23193,0.077574c-0.058576,0.052244 -0.089052,0.120715 -0.089052,0.205413l0,2.108349c0,0.105675 0.028497,0.187207 0.083511,0.246179zm-0.569535,-3.041611c0.208975,-0.177708 0.49117,-0.266759 0.843815,-0.266759c0.321378,0 0.585762,0.093801 0.791967,0.281403c0.204621,0.187207 0.307525,0.428636 0.307525,0.723496l0,1.999112c0,0.330877 -0.100925,0.590116 -0.301588,0.778906c-0.203038,0.188394 -0.479692,0.282591 -0.833524,0.282591c-0.339584,0 -0.61228,-0.097363 -0.816901,-0.291298c-0.203038,-0.194726 -0.305546,-0.456341 -0.305546,-0.785238l0,-2.005841c-0.000396,-0.300401 0.104092,-0.53906 0.314254,-0.716372zm-2.432497,-1.544751l-0.882206,0l1.042499,3.167471l0,2.078665l0.875873,0l0,-2.17682l1.018752,-3.069316l-0.890517,0l-0.540643,2.096871l-0.055014,0l-0.568744,-2.096871zm3.458373,18.997701c-6.557373,0 -11.873563,-5.31619 -11.873563,-11.873563c0,-6.557769 5.31619,-11.873563 11.873563,-11.873563s11.873563,5.315794 11.873563,11.873563c0,6.557373 -5.31619,11.873563 -11.873563,11.873563z"/>
 </g>
</svg>