<svg xmlns="http://www.w3.org/2000/svg" width="15.772" height="22.461" viewBox="0 0 15.772 22.461">
  <g id="Group_55" data-name="Group 55" transform="translate(0)">
    <path id="Path_26" data-name="Path 26" d="M-1846.2-316.237a7.351,7.351,0,0,1-.881,3.344q-2.679,4.763-5.384,9.511c-.194.342-.389.683-.589,1.022a1.238,1.238,0,0,1-2.188,0c-1.937-3.4-3.879-6.793-5.784-10.21a7.926,7.926,0,0,1,1.686-9.629,7.576,7.576,0,0,1,4.076-1.885,7.874,7.874,0,0,1,8.828,6.192C-1846.308-317.348-1846.272-316.788-1846.2-316.237Zm-7.931,3.32a3.4,3.4,0,0,0,3.405-3.4,3.4,3.4,0,0,0-3.389-3.395,3.4,3.4,0,0,0-3.415,3.388A3.4,3.4,0,0,0-1854.127-312.918Z" transform="translate(1861.968 324.16)" fill="#f5f5f5"/>
  </g>
</svg>
