<svg xmlns="http://www.w3.org/2000/svg" width="50.003" height="50.003" viewBox="0 0 50.003 50.003">
  <path id="Path_1418" data-name="Path 1418" d="M1172.032,600a25,25,0,1,1,24.974-24.97A25.082,25.082,0,0,1,1172.032,600Zm-.059-24.74c.232.278.339.43.47.56q5.357,5.31,10.719,10.616c.11.108.217.22.336.318a1.631,1.631,0,1,0,2.061-2.528q-6.078-6.03-12.16-12.055a1.686,1.686,0,0,0-2.722-.014q-4.4,4.337-8.8,8.677-1.762,1.739-3.521,3.482a1.631,1.631,0,0,0,.817,2.751,1.64,1.64,0,0,0,1.614-.569q5.386-5.347,10.781-10.685A4.943,4.943,0,0,0,1171.972,575.264Zm0-12.427c.218.252.321.388.441.508q4.049,4.036,8.1,8.069,1.394,1.388,2.789,2.776a1.584,1.584,0,0,0,1.6.48,1.611,1.611,0,0,0,.682-2.8q-6.11-6.067-12.228-12.126a1.676,1.676,0,0,0-2.657.01l-12.134,12.024c-.1.1-.2.192-.29.3a1.577,1.577,0,0,0-.233,1.774,1.5,1.5,0,0,0,1.5.884,1.781,1.781,0,0,0,1.247-.619q5.409-5.394,10.823-10.782A4.342,4.342,0,0,0,1171.968,562.837Z" transform="translate(-1147.002 -550.001)" fill="#bc2e31"/>
</svg>
