<svg width="25" height="25" xmlns="http://www.w3.org/2000/svg">

 <g>
  <title>background</title>
  <rect fill="none" id="canvas_background" height="27" width="27" y="-1" x="-1"/>
 </g>
 <g>
  <title>Layer 1</title>
  <path stroke="null" fill="#3e4095" id="svg_1" d="m20.720781,18.445896l-5.562953,-5.562939l5.562953,-5.562953c0.600599,-0.600599 0.600599,-1.567519 0,-2.168105c-0.600599,-0.600599 -1.567505,-0.600599 -2.168105,0l-5.562953,5.562953l-5.562953,-5.562953c-0.600599,-0.600599 -1.567505,-0.600599 -2.168104,0c-0.600586,0.600586 -0.600586,1.567505 0,2.168105l5.440003,5.562953l-5.440003,5.562939c-0.600586,0.600599 -0.600586,1.567505 0,2.168104c0.600599,0.600599 1.567505,0.600599 2.168104,0l5.440003,-6.05475l5.685902,6.05475c0.600599,0.600599 1.567505,0.600599 2.168105,0c0.596328,-0.600599 0.596328,-1.571763 0,-2.168104z"/>
 </g>
</svg>