<svg id="Group_56" data-name="Group 56" xmlns="http://www.w3.org/2000/svg" width="19.684" height="15.127" viewBox="0 0 19.684 15.127">
  <path id="Path_27" data-name="Path 27" d="M-815.08-383.964l.238.145q4.7,2.893,9.4,5.79a.3.3,0,0,0,.371,0q4.7-2.9,9.4-5.79l.227-.139c.005.093.011.156.011.219q0,4.693,0,9.386a1.509,1.509,0,0,1-1.589,1.595q-8.237,0-16.475,0a1.508,1.508,0,0,1-1.59-1.593q0-4.693,0-9.386Z" transform="translate(815.085 387.883)" fill="#f5f5f5"/>
  <path id="Path_28" data-name="Path 28" d="M-795.558-479.46c.1.294-.1.443-.354.6q-4.65,2.848-9.288,5.714a.29.29,0,0,1-.358.006q-4.733-2.923-9.474-5.833a.3.3,0,0,1-.181-.316c.024-.233,0-.472.041-.7a1.5,1.5,0,0,1,1.415-1.235c.087,0,.175,0,.262,0,5.405,0,10.81.012,16.216-.011A1.608,1.608,0,0,1-795.558-479.46Z" transform="translate(815.215 481.24)" fill="#f5f5f5"/>
</svg>
