<svg xmlns="http://www.w3.org/2000/svg" width="39.819" height="56.706" viewBox="0 0 39.819 56.706">
  <g id="Group_2683" data-name="Group 2683" transform="translate(0)">
    <path id="Path_26" data-name="Path 26" d="M-1822.148-304.158a18.556,18.556,0,0,1-2.223,8.442q-6.762,12.024-13.591,24.011-.734,1.3-1.487,2.58a3.125,3.125,0,0,1-5.525.011c-4.892-8.578-9.794-17.151-14.6-25.776a20.01,20.01,0,0,1,4.256-24.309,19.128,19.128,0,0,1,10.292-4.76,19.88,19.88,0,0,1,22.287,15.634C-1822.433-306.961-1822.341-305.548-1822.148-304.158Zm-20.024,8.381a8.58,8.58,0,0,0,8.6-8.574,8.594,8.594,0,0,0-8.555-8.57,8.59,8.59,0,0,0-8.623,8.554A8.586,8.586,0,0,0-1842.172-295.777Z" transform="translate(1861.967 324.16)" fill="#ed2024"/>
  </g>
</svg>
