<svg width="24.000000000000004" height="24.000000000000004" xmlns="http://www.w3.org/2000/svg">

 <g>
  <title>background</title>
  <rect fill="none" id="canvas_background" height="26" width="26" y="-1" x="-1"/>
 </g>
 <g>
  <title>Layer 1</title>
  <path fill="#b8b8b8" stroke="null" id="svg_1" d="m23.892212,4.60595c-0.873234,0.388158 -1.813009,0.649983 -2.799074,0.767154c1.006799,-0.602729 1.778774,-1.557452 2.142822,-2.696369c-0.941704,0.55885 -1.984184,0.964367 -3.094652,1.183278c-0.888664,-0.947008 -2.155359,-1.539129 -3.557066,-1.539129c-2.691065,0 -4.872944,2.181879 -4.872944,4.873426c0,0.381407 0.042914,0.75317 0.126332,1.110468c-4.05034,-0.203481 -7.641641,-2.143305 -10.045324,-5.091855c-0.419499,0.719417 -0.659627,1.556488 -0.659627,2.450455c0,1.690535 0.860215,3.18241 2.167896,4.056126c-0.798496,-0.025556 -1.550219,-0.244949 -2.207435,-0.609962c-0.000482,0.020252 -0.000482,0.040986 -0.000482,0.061719c0,2.360769 1.679927,4.330006 3.909542,4.778436c-0.408891,0.110902 -0.839481,0.170693 -1.284054,0.170693c-0.314383,0 -0.619606,-0.030378 -0.917113,-0.087757c0.62057,1.935966 2.420078,3.345388 4.552292,3.384444c-1.667872,1.307199 -3.768745,2.086407 -6.052365,2.086407c-0.392979,0 -0.781137,-0.023145 -1.162544,-0.06847c2.157288,1.383384 4.718646,2.189594 7.470466,2.189594c8.964269,0 13.865662,-7.425622 13.865662,-13.865662c0,-0.211196 -0.00434,-0.42191 -0.013501,-0.631178c0.95183,-0.685665 1.778292,-1.544433 2.431168,-2.521819z"/>
 </g>
</svg>