<svg xmlns="http://www.w3.org/2000/svg" width="32" height="32" viewBox="0 0 32 32">
  <g id="Group_2713" data-name="Group 2713" transform="translate(-0.081)">
    <g id="Ellipse_9" data-name="Ellipse 9" transform="translate(0.081)" fill="#fff" stroke="#707070" stroke-width="0.5">
      <circle cx="16" cy="16" r="16" stroke="none"/>
      <circle cx="16" cy="16" r="15.75" fill="none"/>
    </g>
    <g id="Group_18" data-name="Group 18" transform="translate(8.297 9.861)">
      <path id="Path_10" data-name="Path 10" d="M1235.4,68.65a6.552,6.552,0,0,1-1.886.517,3.3,3.3,0,0,0,1.444-1.816,6.578,6.578,0,0,1-2.085.8,3.287,3.287,0,0,0-5.6,3,9.322,9.322,0,0,1-6.768-3.432,3.286,3.286,0,0,0,1.016,4.385,3.27,3.27,0,0,1-1.487-.411c0,.014,0,.028,0,.042a3.285,3.285,0,0,0,2.634,3.22,3.289,3.289,0,0,1-1.483.057,3.287,3.287,0,0,0,3.068,2.28,6.628,6.628,0,0,1-4.862,1.36,9.339,9.339,0,0,0,14.377-7.868q0-.214-.01-.425a6.669,6.669,0,0,0,1.639-1.7Zm0,0" transform="translate(-1219.393 -67.11)"/>
    </g>
  </g>
</svg>
