<svg width="32" height="32" xmlns="http://www.w3.org/2000/svg">

 <g>
  <title>background</title>
  <rect fill="none" id="canvas_background" height="402" width="582" y="-1" x="-1"/>
 </g>
 <g>
  <title>Layer 1</title>
  <path id="svg_1" fill-rule="evenodd" fill="#124e91" d="m15.999,0.002c8.837,0 16,7.164 16,16s-7.163,16 -16,16s-16,-7.164 -16,-16s7.163,-16 16,-16z" clip-rule="evenodd"/>
  <path id="svg_2" fill="#fff" d="m15.613,13.003c0.506,0 0.902,-0.161 1.192,-0.39c0.288,-0.23 0.432,-0.543 0.432,-0.945l0,-2.426c0,-0.357 -0.147,-0.652 -0.44,-0.879c-0.295,-0.227 -0.672,-0.34 -1.134,-0.34c-0.505,0 -0.909,0.107 -1.208,0.322c-0.3,0.216 -0.45,0.504 -0.45,0.869l0,2.434c0,0.4 0.146,0.716 0.438,0.953c0.292,0.237 0.683,0.402 1.17,0.402zm-0.529,-3.671c0,-0.092 0.048,-0.166 0.143,-0.225c0.096,-0.057 0.22,-0.085 0.372,-0.085c0.166,0 0.3,0.028 0.401,0.085c0.102,0.059 0.152,0.133 0.152,0.225l0,2.306c0,0.114 -0.05,0.204 -0.15,0.269c-0.1,0.064 -0.234,0.097 -0.403,0.097c-0.165,0 -0.293,-0.031 -0.382,-0.096c-0.088,-0.063 -0.133,-0.153 -0.133,-0.27l0,-2.306zm3.877,3.668c0.178,0 0.359,-0.102 0.547,-0.204c0.19,-0.104 0.371,-0.256 0.545,-0.454l0,0.539l0.945,0l0,-4.865l-0.945,0l0,3.693c-0.088,0.105 -0.186,0.192 -0.291,0.261c-0.107,0.068 -0.195,0.103 -0.264,0.103c-0.089,0 -0.154,-0.025 -0.192,-0.078c-0.04,-0.051 -0.062,-0.134 -0.062,-0.248l0,-3.73l-0.943,0l0,4.065c0,0.29 0.057,0.507 0.166,0.651c0.111,0.145 0.275,0.267 0.494,0.267zm2.748,2.011l-11.42,0c-1.816,0 -3.287,1.415 -3.287,3.158l0,2.67c0,1.744 1.471,3.159 3.287,3.159l11.42,0c1.815,0 3.287,-1.415 3.287,-3.159l0,-2.67c0,-1.743 -1.472,-3.158 -3.287,-3.158zm-9.721,2.71l-1.01,0l0,4.182l-0.977,0l0,-4.182l-1.01,0l0,-0.713l2.997,0l0,0.713zm3.014,4.24l-1.053,0l0,-0.434c-0.196,0.16 -0.397,0.283 -0.609,0.365c-0.209,0.086 -0.413,0.127 -0.611,0.127c-0.244,0 -0.426,-0.059 -0.55,-0.178c-0.122,-0.117 -0.185,-0.293 -0.185,-0.528l0,-3.302l1.053,0l0,3.029c0,0.094 0.022,0.16 0.064,0.202c0.046,0.043 0.119,0.062 0.217,0.062c0.076,0 0.176,-0.027 0.294,-0.083c0.119,-0.055 0.228,-0.125 0.327,-0.212l0,-2.999l1.053,0l0,3.951zm3.986,-0.752c0,0.259 -0.082,0.456 -0.245,0.595c-0.161,0.139 -0.399,0.207 -0.706,0.207c-0.205,0 -0.387,-0.026 -0.545,-0.079c-0.159,-0.053 -0.309,-0.135 -0.445,-0.248l0,0.28l-1.051,0l0,-4.956l1.051,0l0,1.597c0.142,-0.11 0.291,-0.196 0.446,-0.254c0.159,-0.059 0.319,-0.087 0.48,-0.087c0.329,0 0.58,0.077 0.753,0.232c0.175,0.156 0.262,0.385 0.262,0.684l0,2.029zm4.006,-1.115l-1.94,0l0,0.714c0,0.199 0.032,0.337 0.099,0.415c0.068,0.077 0.183,0.115 0.344,0.115c0.17,0 0.286,-0.033 0.354,-0.098c0.066,-0.066 0.102,-0.209 0.102,-0.433l0,-0.172l1.043,0l0,0.194c0,0.388 -0.125,0.68 -0.383,0.877c-0.254,0.196 -0.634,0.294 -1.139,0.294c-0.455,0 -0.813,-0.104 -1.074,-0.312c-0.26,-0.206 -0.392,-0.494 -0.392,-0.858l0,-1.702c0,-0.327 0.144,-0.597 0.432,-0.804c0.287,-0.206 0.655,-0.309 1.11,-0.309c0.464,0 0.821,0.096 1.071,0.287c0.249,0.191 0.373,0.467 0.373,0.825l0,0.967zm-11.572,-7.08l1.193,0l0,-2.907l1.389,-4.1l-1.213,0l-0.738,2.802l-0.076,0l-0.774,-2.802l-1.203,0l1.422,4.231l0,2.776zm6.06,5.83l-0.221,0.036l-0.215,0.111l0,2.278c0.084,0.059 0.167,0.104 0.247,0.129l0.251,0.039c0.128,0 0.221,-0.025 0.281,-0.078c0.059,-0.051 0.09,-0.135 0.09,-0.25l0,-1.889c0,-0.125 -0.035,-0.218 -0.109,-0.281c-0.076,-0.063 -0.183,-0.095 -0.324,-0.095z"/>
  <path id="svg_3" fill="#fff" d="m21.553,18.678c-0.162,0 -0.277,0.034 -0.348,0.104c-0.07,0.067 -0.104,0.181 -0.104,0.34l0,0.382l0.897,0l0,-0.382c0,-0.159 -0.037,-0.272 -0.107,-0.34c-0.069,-0.07 -0.184,-0.104 -0.338,-0.104z"/>
 </g>
</svg>